<svg width="35" height="26" viewBox="0 0 35 26" fill="none" xmlns="http://www.w3.org/2000/svg">
<path fill-rule="evenodd" clip-rule="evenodd" d="M34.053 13.234C34.053 12.3351 33.3243 11.6063 32.4254 11.6063H2.04249C1.14357 11.6063 0.414841 12.3351 0.414841 13.234C0.414841 14.1329 1.14357 14.8616 2.04249 14.8616H32.4254C33.3243 14.8616 34.053 14.1329 34.053 13.234Z" fill="#077BFF"/>
<path fill-rule="evenodd" clip-rule="evenodd" d="M34.053 2.38296C34.053 1.48404 33.3243 0.75531 32.4254 0.75531H2.04249C1.14357 0.75531 0.414841 1.48404 0.414841 2.38296C0.414841 3.28189 1.14357 4.01062 2.04249 4.01062H32.4254C33.3243 4.01062 34.053 3.28189 34.053 2.38296Z" fill="#077BFF"/>
<path fill-rule="evenodd" clip-rule="evenodd" d="M34.053 24.085C34.053 23.1861 33.3243 22.4574 32.4254 22.4574H2.04249C1.14357 22.4574 0.414841 23.1861 0.414841 24.085C0.414841 24.9839 1.14357 25.7127 2.04249 25.7127H32.4254C33.3243 25.7127 34.053 24.9839 34.053 24.085Z" fill="#077BFF"/>
</svg>
