<svg width="16" height="17" viewBox="0 0 16 17" fill="none" xmlns="http://www.w3.org/2000/svg">
<path d="M13.3334 4.75002C13.3334 4.75002 11.8047 3.55335 10 3.41669L9.83735 3.74235C11.4687 4.14202 12.2174 4.71335 13 5.41669C11.651 4.72802 10.32 4.08335 8.00002 4.08335C5.68002 4.08335 4.34902 4.72802 3.00002 5.41669C3.78269 4.71335 4.67335 4.07802 6.16269 3.74235L6.00002 3.41669C4.10669 3.59502 2.66669 4.75002 2.66669 4.75002C2.66669 4.75002 0.959687 7.22535 0.666687 12.0834C2.38669 14.0677 5.00002 14.0834 5.00002 14.0834L5.54669 13.3554C4.61869 13.0327 3.57202 12.457 2.66669 11.4167C3.74602 12.2334 5.37502 13.0834 8.00002 13.0834C10.625 13.0834 12.254 12.2334 13.3334 11.4167C12.4284 12.457 11.3817 13.0327 10.4534 13.3554L11 14.0834C11 14.0834 13.6134 14.0677 15.3334 12.0834C15.0404 7.22535 13.3334 4.75002 13.3334 4.75002ZM5.83335 10.75C5.18869 10.75 4.66669 10.1534 4.66669 9.41669C4.66669 8.68002 5.18869 8.08335 5.83335 8.08335C6.47802 8.08335 7.00002 8.68002 7.00002 9.41669C7.00002 10.1534 6.47802 10.75 5.83335 10.75ZM10.1667 10.75C9.52202 10.75 9.00002 10.1534 9.00002 9.41669C9.00002 8.68002 9.52202 8.08335 10.1667 8.08335C10.8114 8.08335 11.3334 8.68002 11.3334 9.41669C11.3334 10.1534 10.8114 10.75 10.1667 10.75Z" fill="#5865F2"/>
</svg>
