<svg width="152" height="29" viewBox="0 0 152 29" fill="none" xmlns="http://www.w3.org/2000/svg">
<path d="M28.8125 0H0.5V28.3125H28.8125V0Z" fill="#00B67A"/>
<path d="M59.4844 0H31.1719V28.3125H59.4844V0Z" fill="#00B67A"/>
<path d="M90.1562 0H61.8438V28.3125H90.1562V0Z" fill="#00B67A"/>
<path d="M120.828 0H92.5156V28.3125H120.828V0Z" fill="#00B67A"/>
<path d="M151.5 0H137.344V28.3125H151.5V0Z" fill="#DCDCE6"/>
<path d="M137.344 0H123.188V28.3125H137.344V0Z" fill="#00B67A"/>
<path d="M14.6562 19.0814L18.9621 17.9902L20.7611 23.5348L14.6562 19.0814ZM24.5656 11.9148H16.9861L14.6562 4.77773L12.3263 11.9148H4.74683L10.8812 16.3387L8.55132 23.4758L14.6857 19.0519L18.4607 16.3387L24.5656 11.9148Z" fill="white"/>
<path d="M45.3281 19.0814L49.6339 17.9902L51.433 23.5348L45.3281 19.0814ZM55.2375 11.9148H47.658L45.3281 4.77773L42.9982 11.9148H35.4187L41.5531 16.3387L39.2232 23.4758L45.3576 19.0519L49.1326 16.3387L55.2375 11.9148Z" fill="white"/>
<path d="M76 19.0814L80.3058 17.9902L82.1048 23.5348L76 19.0814ZM85.9093 11.9148H78.3298L76 4.77773L73.6701 11.9148H66.0906L72.225 16.3387L69.8951 23.4758L76.0294 19.0519L79.8044 16.3387L85.9093 11.9148Z" fill="white"/>
<path d="M106.672 19.0814L110.978 17.9902L112.777 23.5348L106.672 19.0814ZM116.581 11.9148H109.002L106.672 4.77773L104.342 11.9148H96.7625L102.897 16.3387L100.567 23.4758L106.701 19.0519L110.476 16.3387L116.581 11.9148Z" fill="white"/>
<path d="M137.344 19.0814L141.65 17.9902L143.449 23.5348L137.344 19.0814ZM147.253 11.9148H139.674L137.344 4.77773L135.014 11.9148H127.434L133.569 16.3387L131.239 23.4758L137.373 19.0519L141.148 16.3387L147.253 11.9148Z" fill="white"/>
</svg>
