<svg width="20" height="20" viewBox="0 0 20 20" fill="none" xmlns="http://www.w3.org/2000/svg">
<path d="M9.14549 1.32213C9.38298 0.59122 10.417 0.59122 10.6545 1.32213L12.3936 6.67452C12.4998 7.00139 12.8044 7.2227 13.1481 7.2227H18.7759C19.5445 7.2227 19.864 8.20613 19.2423 8.65785L14.6892 11.9658C14.4112 12.1678 14.2948 12.5259 14.401 12.8528L16.1401 18.2052C16.3776 18.9361 15.5411 19.5439 14.9193 19.0921L10.3663 15.7842C10.0883 15.5822 9.71174 15.5822 9.43369 15.7842L4.88068 19.0921C4.25893 19.5439 3.42237 18.9361 3.65986 18.2052L5.39896 12.8528C5.50516 12.5259 5.38882 12.1678 5.11076 11.9658L0.557747 8.65785C-0.0639994 8.20613 0.255535 7.2227 1.02406 7.2227H6.65189C6.99558 7.2227 7.30019 7.00139 7.4064 6.67452L9.14549 1.32213Z" fill="#16D113"/>
</svg>
